<svg width="64" height="84" viewBox="0 0 64 84" fill="none" xmlns="http://www.w3.org/2000/svg">
<circle cx="32" cy="32" r="31" fill="#D50000" stroke="#D50000" stroke-width="2"/>
<path d="M16.922 73.824H22.41V75.126H16.922V73.824ZM16.922 71.71H22.41V72.998H16.922V71.71ZM15.928 70.828V76.008H23.432V70.828H15.928ZM16.054 76.652V82.168H17.062V76.652H16.054ZM16.53 78.346V79.284H19.596V78.346H16.53ZM14.724 81.874L14.962 82.854C16.25 82.616 17.986 82.28 19.638 81.958L19.596 81.02C17.776 81.342 15.942 81.692 14.724 81.874ZM23.474 77.52C22.732 78.108 21.444 78.794 20.324 79.27C20.464 79.48 20.618 79.816 20.674 80.026C21.864 79.564 23.236 78.962 24.216 78.318L23.474 77.52ZM20.03 76.652V81.482C20.03 82.588 20.324 82.896 21.43 82.896C21.668 82.896 22.928 82.896 23.166 82.896C24.118 82.896 24.398 82.434 24.496 80.698C24.216 80.628 23.81 80.474 23.586 80.292C23.544 81.72 23.474 81.958 23.068 81.958C22.816 81.958 21.766 81.958 21.57 81.958C21.122 81.958 21.052 81.888 21.052 81.482V76.652H20.03ZM12.246 71.136C13.086 71.542 14.122 72.214 14.612 72.718L15.228 71.864C14.724 71.374 13.688 70.744 12.834 70.366L12.246 71.136ZM11.518 74.916C12.386 75.294 13.422 75.91 13.926 76.386L14.542 75.518C14.01 75.056 12.96 74.468 12.106 74.118L11.518 74.916ZM11.896 82.294L12.834 82.938C13.548 81.636 14.388 79.9 15.004 78.416L14.178 77.786C13.492 79.382 12.568 81.216 11.896 82.294ZM25.784 71.794V72.732H30.11V71.794H25.784ZM25.728 77.422V78.346H31.65V77.422H25.728ZM28.29 75.924V83.106H29.256V75.924H28.29ZM29.158 78.724L28.612 79.228C29.186 79.69 30.586 80.922 31.062 81.468L31.678 80.656C31.286 80.32 29.634 79.032 29.158 78.724ZM28.332 77.772C27.73 79.2 26.484 80.768 25.364 81.538C25.574 81.748 25.826 82.14 25.952 82.406C27.128 81.44 28.402 79.732 29.088 78.22L28.332 77.772ZM27.618 70.24V71.248C27.618 72.676 27.422 74.552 25.378 75.98C25.602 76.12 25.952 76.414 26.092 76.624C28.29 75.028 28.514 72.928 28.514 71.262V70.24H27.618ZM32.658 75.42V76.33H38.16V75.42H32.658ZM32.658 78.318V79.228H38.202V78.318H32.658ZM32.686 81.482V82.448H38.468V81.482H32.686ZM33.316 70.198C32.826 71.71 31.986 73.194 31.006 74.174C31.244 74.3 31.664 74.58 31.846 74.748C32.798 73.698 33.708 72.088 34.268 70.436L33.316 70.198ZM36.144 70.282C35.92 71.066 35.472 72.172 35.108 72.858L35.976 73.11C36.354 72.466 36.816 71.444 37.18 70.548L36.144 70.282ZM33.274 72.522H32.714L32.308 72.97V83.106H33.274V73.488H38.286V72.522H33.274ZM35.206 72.942V81.804H36.186V72.942H35.206ZM29.634 71.794V74.944C29.634 75.644 29.69 75.854 29.858 76.022C30.026 76.162 30.278 76.232 30.53 76.232C30.656 76.232 30.95 76.232 31.09 76.232C31.258 76.232 31.482 76.204 31.608 76.134C31.748 76.078 31.86 75.98 31.93 75.84C32 75.686 32.042 75.308 32.07 74.986C31.846 74.916 31.594 74.79 31.44 74.65C31.426 74.944 31.398 75.168 31.37 75.266C31.342 75.364 31.286 75.406 31.258 75.434C31.202 75.448 31.118 75.462 31.034 75.462C30.95 75.462 30.81 75.462 30.74 75.462C30.67 75.462 30.614 75.448 30.586 75.406C30.544 75.364 30.53 75.224 30.53 75.014V71.794H29.634ZM40.344 72.746V79.41H41.394V73.782H50.536V79.34H51.628V72.746H40.344ZM40.904 77.506V78.528H51.166V77.506H40.904ZM45.412 70.24V83.106H46.504V70.24H45.412Z" fill="#D50000"/>
<path d="M38 27L26 39" stroke="white" stroke-width="2" stroke-linecap="round" stroke-linejoin="round"/>
<path d="M26 27L38 39" stroke="white" stroke-width="2" stroke-linecap="round" stroke-linejoin="round"/>
</svg>
