<svg width="60" height="82" viewBox="0 0 60 82" fill="none" xmlns="http://www.w3.org/2000/svg">
<circle cx="30" cy="30" r="29" fill="white" stroke="#FFA726" stroke-width="2"/>
<path d="M5.1 70.972L5.16 71.728L11.076 71.2L11.004 70.456L5.1 70.972ZM5.388 72.82L5.46 73.552L10.896 73.012L10.824 72.292L5.388 72.82ZM5.088 74.764L5.172 75.508L11.424 74.848L11.34 74.116L5.088 74.764ZM6.888 68.872C6.948 74.632 7.968 79.912 10.356 79.924C11.184 79.924 11.46 79.468 11.628 77.956C11.424 77.872 11.136 77.68 10.968 77.488C10.896 78.676 10.764 79.06 10.44 79.06C8.892 79.06 7.764 74.416 7.788 68.872H6.888ZM8.46 69.328C9.096 69.58 9.84 70.024 10.212 70.396L10.728 69.808C10.344 69.46 9.588 69.04 8.952 68.8L8.46 69.328ZM10.332 75.1C9.24 76.852 6.876 78.472 4.512 79.096C4.716 79.3 4.92 79.624 5.028 79.852C7.404 79.108 9.792 77.404 10.98 75.556L10.332 75.1ZM0.576 69.472V70.3H5.244V69.472H0.576ZM2.028 71.944V72.76H4.32V71.944H2.028ZM1.176 74.644C1.968 75.112 2.892 75.856 3.324 76.384L3.804 75.652C3.384 75.148 2.436 74.452 1.644 73.996L1.176 74.644ZM2.184 69.724C1.86 71.836 1.248 73.84 0.264 75.1C0.456 75.244 0.816 75.532 0.948 75.688C1.968 74.284 2.652 72.16 3.048 69.856L2.184 69.724ZM4.056 71.944V72.136C3.672 75.688 2.484 78.1 0.732 79.36C0.936 79.48 1.236 79.792 1.368 79.984C3.156 78.64 4.44 76.024 4.884 72.064L4.368 71.908L4.212 71.944H4.056ZM16.056 69.532L15.012 69.496C14.988 69.832 14.964 70.168 14.916 70.528C14.772 71.512 14.544 73.276 14.544 74.416C14.544 75.196 14.604 75.868 14.664 76.324L15.6 76.252C15.516 75.652 15.516 75.232 15.576 74.776C15.72 73.204 17.112 71.02 18.612 71.02C19.872 71.02 20.508 72.388 20.508 74.284C20.508 77.296 18.48 78.352 15.864 78.748L16.44 79.612C19.404 79.072 21.504 77.596 21.504 74.272C21.504 71.752 20.352 70.144 18.768 70.144C17.244 70.144 15.996 71.644 15.504 72.88C15.576 72.04 15.804 70.42 16.056 69.532ZM30.336 78.148L30.768 79.048C33.384 78.544 35.148 77.284 35.136 74.86C35.136 73 33.66 71.836 31.992 71.836C30.732 71.836 29.208 72.34 27.768 73.696V74.764C28.932 73.552 30.312 72.7 31.848 72.7C33.444 72.7 34.176 73.924 34.176 74.848C34.188 76.912 32.364 77.848 30.336 78.148ZM27.624 72.364L27.528 72.676L27.48 73.288C27.012 74.08 25.392 76.288 24.648 77.224L25.248 78.04C26.004 76.996 27.12 75.376 27.672 74.524L28.032 72.88C28.236 72.544 28.56 72.028 28.764 71.716L28.416 71.308C27.852 71.488 26.364 71.668 25.728 71.704C25.428 71.728 25.2 71.728 24.936 71.716L25.044 72.712C25.932 72.58 27.24 72.412 27.624 72.364ZM27.504 70.372C27.504 70.816 27.216 74.62 27.192 75.676C27.18 76.996 27.168 77.596 27.168 78.76C27.168 78.952 27.144 79.3 27.132 79.468H28.164C28.152 79.24 28.116 78.94 28.104 78.736C28.056 77.668 28.056 76.936 28.056 75.844C28.056 73.732 28.428 70.3 28.596 69.52L27.456 69.484C27.516 69.784 27.504 70.096 27.504 70.372ZM43.176 69.64H42.084C42.108 69.736 42.144 70.072 42.168 70.396C42.204 71.068 42.216 73.444 42.216 73.972L43.128 74.44C43.116 73.48 43.092 71.164 43.116 70.396C43.116 70.24 43.152 69.772 43.176 69.64ZM36.804 71.308L36.828 72.232C38.628 72.1 41.208 72.016 43.272 72.016C45.024 72.016 46.104 72.04 46.788 72.076L46.8 71.188C46.224 71.176 44.748 71.176 43.284 71.176C41.436 71.176 38.436 71.284 36.804 71.308ZM43.104 74.788L42.444 74.464C42.636 75.736 42.156 76.372 41.4 76.372C40.752 76.372 40.188 75.928 40.188 75.172C40.188 74.392 40.776 73.9 41.4 73.9C42.06 73.9 42.588 74.356 42.588 75.436C42.588 77.416 41.316 78.496 39.12 79L39.924 79.78C42.72 78.952 43.512 77.152 43.512 75.532C43.512 74.14 42.804 73.108 41.4 73.108C40.26 73.108 39.288 73.996 39.288 75.184C39.288 76.492 40.248 77.2 41.256 77.2C42.36 77.2 43.104 76.396 43.104 74.788ZM44.832 69.388L44.16 69.676C44.46 70.084 44.796 70.66 45.048 71.14L45.732 70.84C45.492 70.396 45.108 69.796 44.832 69.388ZM46.284 69.076L45.612 69.364C45.924 69.772 46.248 70.324 46.512 70.828L47.184 70.516C46.932 70.06 46.56 69.484 46.284 69.076ZM53.244 69.64L52.14 69.532C52.14 70.456 51.972 71.536 51.756 72.484C51.432 73.96 50.472 77.164 49.104 78.988L50.076 79.384C51.432 77.188 52.296 74.2 52.704 72.52C52.86 71.776 53.028 70.792 53.1 70.36C53.148 70.12 53.196 69.868 53.244 69.64ZM57.384 70.924L56.508 71.32C57.348 72.304 58.284 74.428 58.644 75.664L59.568 75.22C59.172 74.104 58.128 71.896 57.384 70.924ZM48.924 72.28L49.032 73.312C49.332 73.264 49.836 73.204 50.112 73.168C50.844 73.096 53.088 72.832 53.892 72.832C54.66 72.832 55.164 73.036 55.164 74.128C55.164 75.424 54.984 76.996 54.6 77.8C54.348 78.328 53.988 78.424 53.544 78.424C53.208 78.424 52.584 78.328 52.08 78.172L52.236 79.18C52.62 79.264 53.184 79.348 53.652 79.348C54.42 79.348 55.02 79.156 55.404 78.352C55.896 77.356 56.088 75.448 56.088 74.02C56.088 72.388 55.212 71.98 54.144 71.98C53.328 71.98 50.892 72.256 50.004 72.28C49.62 72.292 49.308 72.292 48.924 72.28Z" fill="#FFA726"/>
<path d="M28.29 21.86L19.82 36C19.6454 36.3024 19.553 36.6453 19.552 36.9945C19.551 37.3437 19.6415 37.6871 19.8144 37.9905C19.9874 38.2939 20.2367 38.5468 20.5377 38.7239C20.8387 38.901 21.1808 38.9962 21.53 39H38.47C38.8192 38.9962 39.1613 38.901 39.4623 38.7239C39.7633 38.5468 40.0126 38.2939 40.1856 37.9905C40.3585 37.6871 40.449 37.3437 40.448 36.9945C40.447 36.6453 40.3546 36.3024 40.18 36L31.71 21.86C31.5317 21.5661 31.2807 21.3231 30.9812 21.1545C30.6817 20.9859 30.3437 20.8973 30 20.8973C29.6563 20.8973 29.3183 20.9859 29.0188 21.1545C28.7193 21.3231 28.4683 21.5661 28.29 21.86V21.86Z" stroke="#FFA726" stroke-width="2" stroke-linecap="round" stroke-linejoin="round"/>
</svg>
