<svg width="64" height="84" viewBox="0 0 64 84" fill="none" xmlns="http://www.w3.org/2000/svg">
<circle cx="32" cy="32" r="31" fill="white" stroke="#00C853" stroke-width="2"/>
<path d="M10.426 70.24V72.34H11.504V70.24H10.426ZM10.426 78.402V82.28H11.504V78.402H10.426ZM8.872 72.522C8.648 74.664 8.004 75.868 4.924 76.47C5.148 76.68 5.4 77.1 5.498 77.352C8.886 76.596 9.684 75.098 9.95 72.522H8.872ZM11.98 72.48V75.448C11.98 76.484 12.288 76.764 13.52 76.764C13.772 76.764 15.27 76.764 15.536 76.764C16.474 76.764 16.768 76.428 16.894 75.098C16.6 75.028 16.18 74.874 15.97 74.72C15.914 75.7 15.844 75.84 15.438 75.84C15.116 75.84 13.87 75.84 13.632 75.84C13.114 75.84 13.016 75.784 13.016 75.448V72.48H11.98ZM5.092 71.696V74.524H6.128V72.662H15.872V74.216H16.936V71.696H5.092ZM6.296 77.954V78.906H15.942V77.954H6.296ZM4.826 81.748V82.7H17.16V81.748H4.826ZM25.602 77.03V83.148H26.624V77.03H25.602ZM21.15 74.216V75.084H31.202V74.216H21.15ZM23.292 72.956V77.394H28.92V72.956H27.884V76.526H24.258V72.956H23.292ZM21.92 78.514V82.658H22.942V79.424H29.886V78.514H21.92ZM29.41 78.514V81.454C29.41 81.622 29.354 81.678 29.158 81.678C28.962 81.692 28.332 81.692 27.576 81.664C27.716 81.944 27.842 82.294 27.884 82.574C28.892 82.574 29.536 82.574 29.942 82.42C30.334 82.28 30.432 82 30.432 81.482V78.514H29.41ZM24.86 70.254V72.158H25.938V70.254H24.86ZM20.198 71.668V72.62H31.328V71.668H20.198ZM19.68 71.668V75.7C19.68 77.744 19.582 80.586 18.434 82.588C18.672 82.7 19.12 82.994 19.302 83.176C20.506 81.048 20.688 77.884 20.688 75.7V71.668H19.68ZM38.594 70.926L37.432 70.884C37.432 71.066 37.418 71.318 37.39 71.57C37.264 72.774 36.984 75.042 36.984 76.96C36.984 78.738 37.362 80.726 37.768 81.972L38.79 81.664C38.356 80.348 37.964 78.668 37.964 76.848C37.964 74.93 38.202 72.718 38.44 71.542C38.482 71.346 38.538 71.094 38.594 70.926ZM36.34 72.648C35.738 72.648 34.52 72.564 34.03 72.48L34.058 73.53C34.632 73.558 35.724 73.614 36.326 73.614C38.412 73.614 41.17 73.404 43.186 73.054L43.172 72.018C41.24 72.452 38.804 72.648 36.34 72.648ZM42.178 74.3L41.058 74.02C41.044 74.244 40.974 74.622 40.918 74.832C40.274 77.1 39.126 78.612 37.88 79.704C36.984 80.488 36.074 80.88 35.374 80.88C34.856 80.88 34.576 80.6 34.576 80.026C34.576 78.738 35.836 77.198 37.418 76.498C38.132 76.176 39.168 75.84 40.344 75.84C42.43 75.84 43.578 77.03 43.578 78.388C43.578 80.194 42.01 81.496 39.49 81.776L40.092 82.714C43.34 82.196 44.67 80.446 44.67 78.444C44.67 76.484 43.004 74.944 40.358 74.944C39.448 74.944 38.314 75.154 37.376 75.518C35.304 76.316 33.526 78.29 33.526 80.208C33.526 81.398 34.254 81.958 35.178 81.958C36.172 81.958 37.292 81.44 38.188 80.754C39.658 79.62 41.058 77.674 41.884 75.084C41.968 74.86 42.094 74.482 42.178 74.3ZM50.732 70.954L49.514 70.912C49.486 71.304 49.458 71.696 49.402 72.116C49.234 73.264 48.968 75.322 48.968 76.652C48.968 77.562 49.038 78.346 49.108 78.878L50.2 78.794C50.102 78.094 50.102 77.604 50.172 77.072C50.34 75.238 51.964 72.69 53.714 72.69C55.184 72.69 55.926 74.286 55.926 76.498C55.926 80.012 53.56 81.244 50.508 81.706L51.18 82.714C54.638 82.084 57.088 80.362 57.088 76.484C57.088 73.544 55.744 71.668 53.896 71.668C52.118 71.668 50.662 73.418 50.088 74.86C50.172 73.88 50.438 71.99 50.732 70.954Z" fill="#00C853"/>
<path d="M41 28L30 39L25 34" stroke="#00C853" stroke-width="2" stroke-linecap="round" stroke-linejoin="round"/>
</svg>
